HIERARCHY
ROOT Hips
{
	OFFSET 0.00000 0.00000 0.00000
	CHANNELS 6 Xposition Yposition Zposition Zrotation Yrotation Xrotation 
	JOINT LHipJoint
	{
		OFFSET 0 0 0
		CHANNELS 3 Zrotation Yrotation Xrotation
		JOINT LeftHip
		{
			OFFSET 1.27966 -1.91611 0.81506
			CHANNELS 3 Zrotation Yrotation Xrotation
			JOINT LeftKnee
			{
				OFFSET 2.49511 -6.85528 0.00000
				CHANNELS 3 Zrotation Yrotation Xrotation
				JOINT LeftAnkle
				{
					OFFSET 2.67286 -7.34045 0.00000
					CHANNELS 3 Zrotation Yrotation Xrotation
					JOINT LeftToe
					{
						OFFSET 0.22740 -0.62477 2.32102
						CHANNELS 3 Zrotation Yrotation Xrotation
						End Site
						{
							OFFSET 0.00000 -0.00000 1.20480
						}
					}
				}
			}
		}
	}
	JOINT RHipJoint
	{
		OFFSET 0 0 0
		CHANNELS 3 Zrotation Yrotation Xrotation
		JOINT RightHip
		{
			OFFSET -1.09666 -1.91611 0.81505
			CHANNELS 3 Zrotation Yrotation Xrotation
			JOINT RightKnee
			{
				OFFSET -2.51373 -6.90642 0.00000
				CHANNELS 3 Zrotation Yrotation Xrotation
				JOINT RightAnkle
				{
					OFFSET -2.70173 -7.42295 0.00000
					CHANNELS 3 Zrotation Yrotation Xrotation
					JOINT RightToe
					{
						OFFSET -0.22214 -0.61032 2.18267
						CHANNELS 3 Zrotation Yrotation Xrotation
						End Site
						{
							OFFSET -0.00000 -0.00000 1.13683
						}
					}
				}
			}
		}
	}
	JOINT lowerback
	{
		OFFSET 0 0 0
		CHANNELS 3 Zrotation Yrotation Xrotation
		JOINT Chest
		{
			OFFSET -0.00990 2.16804 -0.08389
			CHANNELS 3 Zrotation Yrotation Xrotation
			JOINT Chest2
			{
				OFFSET 0.06407 2.15456 0.07285
				CHANNELS 3 Zrotation Yrotation Xrotation
				JOINT lowerneck
				{
					OFFSET 0 0 0
					CHANNELS 3 Zrotation Yrotation Xrotation
					JOINT Neck
					{
						OFFSET -0.16931 1.61602 0.24462
						CHANNELS 3 Zrotation Yrotation Xrotation
						JOINT Head
						{
							OFFSET 0.21556 1.63376 -0.33896
							CHANNELS 3 Zrotation Yrotation Xrotation
							End Site
							{
								OFFSET 0.08444 1.69244 -0.14900
							}
						}
					}
				}
				JOINT LeftCollar
				{
					OFFSET 0 0 0
					CHANNELS 3 Zrotation Yrotation Xrotation
					JOINT LeftShoulder
					{
						OFFSET 2.89000 1.40150 -0.54392
CHANNELS 3 Zrotation Xrotation Yrotation
						JOINT LeftElbow
						{
OFFSET 0 -5.107550 0.000000
CHANNELS 3 Zrotation Xrotation Yrotation
							JOINT LeftWrist
							{
OFFSET 0 -3.362530 0.000000
CHANNELS 3 Zrotation Xrotation Yrotation
								JOINT lhand
								{
									OFFSET 0 0 0
CHANNELS 3 Zrotation Xrotation Yrotation
									JOINT LFingers
									{
OFFSET 0 -0.619090 0.000000
CHANNELS 3 Zrotation Xrotation Yrotation
										End Site
										{
OFFSET 0 -0.499120 0.000000
										}
									}
								}
								JOINT LThumb
								{
OFFSET 0 0.000000 0.000000
CHANNELS 3 Zrotation Xrotation Yrotation
									End Site
									{
OFFSET 0 -0.506750 0.506750
									}
								}
							}
						}
					}
				}
				JOINT RightCollar
				{
					OFFSET 0 0 0
					CHANNELS 3 Zrotation Yrotation Xrotation
					JOINT RightShoulder
					{
						OFFSET -2.65771 1.70968 -0.54312
CHANNELS 3 Zrotation Xrotation Yrotation
						JOINT RightElbow
						{
OFFSET 0 -5.273870 0.000000
CHANNELS 3 Zrotation Xrotation Yrotation
							JOINT RightWrist
							{
OFFSET 0 -3.401440 0.000000
CHANNELS 3 Zrotation Xrotation Yrotation
								JOINT rhand
								{
									OFFSET 0 0 0
CHANNELS 3 Zrotation Xrotation Yrotation
									JOINT RFingers
									{
OFFSET 0 -0.742820 0.000000
CHANNELS 3 Zrotation Xrotation Yrotation
										End Site
										{
OFFSET 0 -0.598880 0.000000
										}
									}
								}
								JOINT RThumb
								{
OFFSET 0 0.000000 0.000000
CHANNELS 3 Zrotation Xrotation Yrotation
									End Site
									{
OFFSET 0 -0.608030 0.608030
									}
								}
							}
						}
					}
				}
			}
		}
	}
}
MOTION
Frames: 10
Frame Time: 0.008333333333333333
-5.080222 17.867978 27.869303 -364.404068 3.548577 715.559905 0.000000 0.000000 0.000000 -10.823396 1.148318 -10.153585 11.838594 18.321070 65.475707 0.232510 -3.931598 11.394110 0.904973 -6.060503 -16.960506 0.000000 0.000000 0.000000 29.883758 1.771757 -6.157782 -1.870175 -8.590068 24.521361 -0.320742 -1.910925 -11.571923 -0.029437 1.106446 -3.041766 0.729862 0.017609 8.727123 4.866332 0.248346 2.117753 4.624804 0.128434 -2.716099 -15.054592 -4.204292 -17.049231 5.613019 -3.153539 35.238005 4.471033 -2.568558 15.736126 0.000000 0.000000 0.000000 -0.028791 8.063846 -26.067314 19.143593 -29.596629 5.101597 10.526561 7.282759 -28.104387 0.000000 0.000000 0.000000 -7.125000 0.000000 0.000000 -21.957519 57.108501 6.740788 0.000000 0.000000 0.000000 -5.180912 3.770521 6.161606 -10.927826 -18.177180 -1.753606 -20.269661 6.803731 -11.538884 0.000000 0.000000 0.000000 7.125000 0.000000 0.000000 4.814824 17.727759 3.131079
-5.028692 17.669892 29.585998 -367.204668 -2.460096 716.268119 0.000000 0.000000 0.000000 -6.965615 -0.777224 -23.549382 10.874567 17.872363 62.372545 0.136396 -5.106638 -6.977401 1.572208 -7.911525 -22.445712 0.000000 0.000000 0.000000 33.522322 1.660334 0.521826 -1.848998 -8.544220 24.379782 -0.739004 2.131434 -15.656744 -0.080819 1.833640 -5.046057 4.085466 1.602588 8.930577 4.592135 2.684358 1.662009 2.161730 1.309512 -3.315543 -14.867756 -3.872043 -16.249006 5.811882 -2.937704 35.487901 4.575678 -2.446877 15.628490 0.000000 0.000000 0.000000 -2.467175 12.207252 -19.034106 16.361462 -26.008245 3.803187 9.897469 5.751734 -29.585013 0.000000 0.000000 0.000000 -7.125000 0.000000 0.000000 -23.659636 58.331511 8.003873 0.000000 0.000000 0.000000 -6.164144 0.320230 16.740737 -15.560930 -24.920853 -3.459281 -22.231489 -3.056827 -10.921861 0.000000 0.000000 0.000000 7.125000 0.000000 0.000000 3.418403 18.216839 2.182615
-4.926578 17.671808 31.338163 -367.983546 -5.179383 718.616656 0.000000 0.000000 0.000000 -6.561394 -5.601916 -26.011675 3.236432 11.063142 32.498948 0.157155 0.559237 -7.706454 1.358012 -7.376226 -20.835040 0.000000 0.000000 0.000000 33.455718 -0.341675 8.196050 -0.945751 -6.192597 17.344523 -0.654559 3.150667 -14.537361 -0.238229 3.141119 -8.671803 4.783651 2.051435 7.956397 4.274309 3.302234 0.950183 1.394605 1.598505 -3.460729 -14.227818 -3.394329 -17.118251 4.934284 -1.954378 35.864067 4.270764 -2.082590 15.859093 0.000000 0.000000 0.000000 -3.971453 12.740951 -13.820040 12.975615 -21.251485 2.444480 8.991192 10.280818 -30.228178 0.000000 0.000000 0.000000 -7.125000 0.000000 0.000000 -25.081113 58.712308 8.757181 0.000000 0.000000 0.000000 -7.733668 -3.259483 22.592354 -20.879559 -31.687084 -5.986684 -23.183008 -7.382171 -10.791875 0.000000 0.000000 0.000000 7.125000 0.000000 0.000000 2.743160 18.272844 1.746558
-4.740493 17.507968 33.336295 -368.517048 -7.521467 719.706005 0.000000 0.000000 0.000000 -7.409857 -5.621483 -26.248289 1.661847 8.122934 23.088213 0.263484 -3.935663 -9.140436 1.462623 -7.642859 -21.634655 0.000000 0.000000 0.000000 32.145529 -1.118584 14.845703 -0.864955 -5.930196 16.582078 -0.464500 4.432003 -12.124923 -0.986253 6.321073 -17.718785 5.074556 2.476400 7.087028 4.169239 3.852671 0.415130 1.095324 1.861555 -3.500198 -13.553638 -2.796358 -17.665109 4.764614 -1.133018 36.564637 4.261104 -1.703905 16.211516 0.000000 0.000000 0.000000 -3.652645 13.724741 -14.751859 13.668348 -22.258608 2.701198 8.026974 9.406608 -29.477401 0.000000 0.000000 0.000000 -7.125000 0.000000 0.000000 -25.462212 57.829975 8.352261 0.000000 0.000000 0.000000 -8.081009 -3.404123 23.761081 -24.271486 -35.450108 -7.863482 -23.885154 -9.099917 -10.660829 0.000000 0.000000 0.000000 7.125000 0.000000 0.000000 2.242349 18.351700 1.423461
-4.498929 17.423122 35.420923 -363.187469 -10.018857 716.071793 0.000000 0.000000 0.000000 -15.203353 -2.028144 -22.083698 2.932746 10.585434 30.894066 -0.124520 -7.271391 -1.310902 1.149503 -6.805993 -19.142536 0.000000 0.000000 0.000000 23.198033 -1.665258 8.813844 -5.133365 -13.529047 41.388946 -0.001790 1.796462 2.611649 -0.030082 1.109389 -3.049995 0.516396 3.009758 8.542979 2.291063 4.132590 1.369072 1.607250 2.056091 -3.495798 -13.588738 -2.218674 -17.395650 5.907569 -0.745750 36.328482 4.833554 -1.379992 15.952162 0.000000 0.000000 0.000000 -1.699527 10.320927 -13.226257 14.467128 -23.398618 3.011128 9.595202 8.835801 -30.397456 0.000000 0.000000 0.000000 -7.125000 0.000000 0.000000 -24.603196 58.999066 8.748151 0.000000 0.000000 0.000000 -5.610681 -3.301929 20.559592 -20.549376 -31.297924 -5.814321 -23.814750 -5.466516 -10.025300 0.000000 0.000000 0.000000 7.125000 0.000000 0.000000 2.266304 19.047301 1.402736
-4.330118 17.567667 37.089388 -360.533122 -9.668380 713.520127 0.000000 0.000000 0.000000 -20.266712 0.218727 -13.608532 2.847824 10.444547 30.428564 0.075888 -7.496333 -6.796231 1.000564 -6.363734 -17.844079 0.000000 0.000000 0.000000 16.831905 -3.076708 -6.146918 -11.772550 -18.292242 65.265327 -0.001504 -7.593067 5.325187 -0.165104 2.615414 -7.209979 -1.595870 2.417815 9.919535 1.947236 3.123640 1.668654 2.506886 1.579158 -4.014035 -13.610848 -1.044285 -16.436784 5.261803 1.100312 35.371772 4.796396 -0.643287 15.010687 0.000000 0.000000 0.000000 0.686046 6.637980 -14.940598 17.967363 -28.114966 4.533996 11.337035 4.974409 -31.965462 0.000000 0.000000 0.000000 -7.125000 0.000000 0.000000 -24.122050 60.814499 9.620258 0.000000 0.000000 0.000000 -3.873703 -2.768372 14.008276 -13.531349 -22.060140 -2.649875 -21.088647 1.984721 -10.975870 0.000000 0.000000 0.000000 7.125000 0.000000 0.000000 4.225129 18.255907 2.696290
-4.342116 17.587169 38.361562 -358.743267 -6.123665 713.408937 0.000000 0.000000 0.000000 -23.459332 0.558120 -8.473645 2.681889 10.161357 29.500715 0.227862 -9.310915 -10.018592 1.079795 -6.604531 -18.548995 0.000000 0.000000 0.000000 14.507799 -3.447107 -17.856178 -11.193314 -18.027588 63.406879 -0.086889 -5.284549 -9.803031 -0.389023 4.004925 -11.090496 -4.410736 1.252622 9.948325 2.230353 1.290867 1.880383 4.652203 0.700833 -3.766226 -13.492077 -0.846443 -17.600490 4.777793 1.700580 34.086724 4.625467 -0.368304 14.610625 0.000000 0.000000 0.000000 3.909773 3.710063 -21.016400 25.581925 -36.790903 8.636826 15.785809 0.148229 -31.026492 0.000000 0.000000 0.000000 -7.125000 0.000000 0.000000 -18.618182 61.022011 7.417237 0.000000 0.000000 0.000000 -3.040348 -1.065213 6.504380 -10.960200 -18.227206 -1.763481 -21.325228 5.571400 -12.457704 0.000000 0.000000 0.000000 7.125000 0.000000 0.000000 4.106978 16.659945 2.763977
-4.460588 17.614940 39.385034 -358.499948 -3.823752 714.461770 0.000000 0.000000 0.000000 -23.736824 1.559234 -4.923258 2.342755 9.545808 27.518426 0.245006 -11.653992 -11.305275 0.771824 -5.609537 -15.655638 0.000000 0.000000 0.000000 14.256823 4.441783 -20.484628 -5.200138 -13.600267 41.669449 -0.379757 -2.026642 -12.568939 -0.584020 4.888777 -13.592504 -5.011010 0.517232 10.339523 2.424280 0.240461 1.800960 5.343707 0.195028 -3.947964 -13.857784 -0.962631 -18.109727 5.382900 1.490651 32.342873 4.832259 -0.326486 13.942890 0.000000 0.000000 0.000000 6.974567 1.851585 -22.844185 33.431545 -43.657857 13.719559 13.988939 -1.404186 -32.949946 0.000000 0.000000 0.000000 -7.125000 0.000000 0.000000 -22.212410 62.357090 9.644686 0.000000 0.000000 0.000000 -2.409698 1.164137 6.833474 -11.337476 -18.803667 -1.883268 -20.774511 6.060378 -11.351801 0.000000 0.000000 0.000000 7.125000 0.000000 0.000000 4.456185 17.883116 2.881101
-4.656393 17.653897 40.428939 -358.379197 -0.094919 714.196419 0.000000 0.000000 0.000000 -23.360164 2.125067 2.426918 1.509859 7.760351 21.988485 0.172981 -13.752049 -11.624781 0.810765 -5.743231 -16.041945 0.000000 0.000000 0.000000 11.726877 14.814307 -14.135791 -1.828300 -8.498850 24.239819 0.274720 10.832801 -2.082868 -0.983492 6.299728 -17.660738 -4.471594 -0.279321 9.889690 2.589961 -0.732210 2.346762 5.323069 -0.334536 -3.006153 -13.997529 -1.081461 -17.196376 4.598130 1.467728 31.384369 4.471319 -0.407386 13.358120 0.000000 0.000000 0.000000 7.472443 1.095463 -23.893418 34.539282 -44.479763 14.489809 14.192510 -3.547849 -32.390207 0.000000 0.000000 0.000000 -7.125000 0.000000 0.000000 -21.472192 61.899367 9.061333 0.000000 0.000000 0.000000 -2.786632 1.413078 6.422719 -11.215819 -18.618152 -1.844337 -21.085344 5.812057 -12.141464 0.000000 0.000000 0.000000 7.125000 0.000000 0.000000 4.262522 17.018386 2.836256
-5.023620 17.619774 41.411033 -358.320581 6.190509 714.834616 0.000000 0.000000 0.000000 -22.307891 -0.820438 5.998716 1.541927 7.838653 22.225012 0.093758 -15.620006 -11.944679 0.855968 -5.899366 -16.493043 0.000000 0.000000 0.000000 12.626898 12.342916 -12.393998 -2.163236 -9.198159 26.417193 0.242728 10.529649 -2.485802 -0.167712 2.624009 -7.234511 -4.466218 -0.998331 9.274987 2.947302 -1.650703 2.135940 5.790077 -0.793046 -2.760134 -13.747337 -1.507528 -17.615251 4.485978 0.897486 31.374008 4.304215 -0.631616 13.514690 0.000000 0.000000 0.000000 4.964466 2.260120 -25.237698 28.841300 -39.877819 10.659315 16.513496 -1.327294 -28.260106 0.000000 0.000000 0.000000 -7.125000 0.000000 0.000000 -15.881669 58.546742 5.349147 0.000000 0.000000 0.000000 -3.459107 1.513836 7.029718 -11.533085 -19.100611 -1.946811 -22.535912 3.530958 -11.148864 0.000000 0.000000 0.000000 7.125000 0.000000 0.000000 3.212545 17.946282 2.069310
